<svg id="Layer_1" data-name="Layer 1" xmlns="http://www.w3.org/2000/svg" viewBox="0 0 800 800"><path d="M400,733.33a33.34,33.34,0,0,1-32.19-24.66L320.14,531.61c-4.59-17-7.36-27.32-10.23-31.74a33,33,0,0,0-9.78-9.78c-4.41-2.87-14.7-5.64-31.74-10.23L91.33,432.19a33.34,33.34,0,0,1,0-64.38l177.06-47.67c17-4.59,27.33-7.36,31.75-10.23a33.12,33.12,0,0,0,9.77-9.78c2.87-4.41,5.64-14.7,10.23-31.73L367.81,91.33a33.34,33.34,0,0,1,64.38,0l47.67,177.06c4.59,17,7.36,27.33,10.23,31.75a33.12,33.12,0,0,0,9.78,9.77c4.42,2.87,14.7,5.64,31.74,10.23l177.06,47.67a33.34,33.34,0,0,1,0,64.38L531.61,479.86c-17,4.59-27.32,7.35-31.74,10.23a32.89,32.89,0,0,0-9.78,9.77c-2.88,4.43-5.64,14.71-10.23,31.75L432.19,708.67A33.34,33.34,0,0,1,400,733.33Z"/></svg>